<svg width="20" height="20" viewBox="0 0 20 20" fill="none" xmlns="http://www.w3.org/2000/svg">
<g opacity="0.5">
<path d="M6.59106 11.1875C7.75873 11.1877 8.69438 12.1326 8.69458 13.3086V16.1328C8.69458 17.3007 7.75886 18.2537 6.59106 18.2539H3.79126C2.63156 18.2539 1.68677 17.3008 1.68677 16.1328V13.3086C1.68697 12.1325 2.63168 11.1875 3.79126 11.1875H6.59106ZM16.1497 11.1875C17.3092 11.1875 18.254 12.1325 18.2542 13.3086V16.1328C18.2542 17.3008 17.3094 18.2539 16.1497 18.2539H13.3499C12.182 18.2538 11.2463 17.3007 11.2463 16.1328V13.3086C11.2465 12.1326 12.1821 11.1877 13.3499 11.1875H16.1497ZM6.59106 1.68652C7.75875 1.68675 8.6944 2.63909 8.69458 3.80762V6.63184C8.69457 7.80796 7.75885 8.75173 6.59106 8.75195H3.79126C2.63156 8.75195 1.68678 7.8081 1.68677 6.63184V3.80762C1.68695 2.63896 2.63167 1.68652 3.79126 1.68652H6.59106ZM16.1497 1.68652C17.3092 1.68652 18.254 2.63896 18.2542 3.80762V6.63184C18.2541 7.8081 17.3094 8.75195 16.1497 8.75195H13.3499C12.182 8.7518 11.2463 7.808 11.2463 6.63184V3.80762C11.2465 2.63905 12.1821 1.68668 13.3499 1.68652H16.1497Z" fill="white"/>
</g>
</svg>
