<svg width="21" height="20" viewBox="0 0 21 20" fill="none" xmlns="http://www.w3.org/2000/svg">
<g opacity="0.5">
<path d="M15.8083 11.6428C17.3821 11.6429 18.657 12.8964 18.657 14.4426C18.657 15.9879 17.3821 17.2413 15.8083 17.2415C14.2354 17.2415 12.9597 15.988 12.9597 14.4426C12.9597 12.8964 14.2354 11.6428 15.8083 11.6428ZM8.78589 13.2483C9.47507 13.2485 10.0349 13.7987 10.0349 14.4758C10.0349 15.1521 9.47505 15.7022 8.78589 15.7024H3.33862C2.64926 15.7024 2.08962 15.1522 2.0896 14.4758C2.0896 13.7985 2.64925 13.2483 3.33862 13.2483H8.78589ZM4.93823 2.51489C6.5121 2.5149 7.78687 3.76836 7.78687 5.31372C7.78677 6.85991 6.51204 8.11352 4.93823 8.11353C3.36534 8.11353 2.08969 6.85991 2.0896 5.31372C2.0896 3.76836 3.36528 2.51489 4.93823 2.51489ZM17.4089 4.08716C18.0973 4.08728 18.657 4.63741 18.657 5.31372C18.6569 5.99085 18.0972 6.54016 17.4089 6.54028H11.9617C11.2724 6.5402 10.7127 5.99088 10.7126 5.31372C10.7126 4.63739 11.2724 4.08724 11.9617 4.08716H17.4089Z" fill="white"/>
</g>
</svg>
