<svg width="19" height="20" viewBox="0 0 19 20" fill="none" xmlns="http://www.w3.org/2000/svg">
<path d="M14 0V5H18.6667V0H14ZM17.5 3.75H15.1667V1.25H17.5V3.75ZM14 7.5V12.5H18.6667V7.5H14ZM17.5 11.25H15.1667V8.75H17.5V11.25ZM7 0V5H11.6667V0H7ZM10.5 3.75H8.16667V1.25H10.5V3.75ZM7 7.5V12.5H11.6667V7.5H7ZM10.5 11.25H8.16667V8.75H10.5V11.25ZM14 15V20H18.6667V15H14ZM17.5 18.75H15.1667V16.25H17.5V18.75ZM7 15V20H11.6667V15H7ZM10.5 18.75H8.16667V16.25H10.5V18.75ZM0 0V5H4.66667V0H0ZM3.5 3.75H1.16667V1.25H3.5V3.75ZM0 7.5V12.5H4.66667V7.5H0ZM3.5 11.25H1.16667V8.75H3.5V11.25ZM0 15V20H4.66667V15H0ZM3.5 18.75H1.16667V16.25H3.5V18.75Z" fill="#FF5F57"/>
</svg>
