<svg width="20" height="20" viewBox="0 0 20 20" fill="none" xmlns="http://www.w3.org/2000/svg">
<path d="M8.30237 16.0231C8.71896 15.935 11.2578 15.935 11.6744 16.0231C12.0305 16.1054 12.4156 16.2978 12.4156 16.7174C12.3949 17.1169 12.1604 17.471 11.8365 17.696C11.4167 18.0233 10.9239 18.2306 10.4088 18.3053C10.1239 18.3423 9.84393 18.3431 9.56897 18.3053C9.05299 18.2306 8.56031 18.0231 8.14124 17.695C7.81659 17.4709 7.58188 17.1169 7.56116 16.7174C7.56116 16.2979 7.94629 16.1054 8.30237 16.0231ZM10.0377 1.66666C11.7712 1.66668 13.5416 2.48947 14.5934 3.85416C15.2758 4.73289 15.5895 5.61056 15.5895 6.97525V7.33072C15.5896 8.377 15.8657 8.994 16.4742 9.70474C16.9355 10.2284 17.0836 10.9004 17.0836 11.6295C17.0836 12.3581 16.8444 13.0505 16.3649 13.612C15.7371 14.285 14.8514 14.714 13.9479 14.7887C12.6385 14.9003 11.3282 14.9948 10.0006 14.9948C8.67222 14.9948 7.36269 14.9381 6.05334 14.7887C5.14902 14.714 4.2633 14.285 3.63635 13.612C3.15681 13.0505 2.91663 12.3581 2.91663 11.6295C2.91669 10.9005 3.06479 10.2283 3.52502 9.70474C4.15272 8.99396 4.41167 8.37705 4.41174 7.33072V6.97525C4.41174 5.57362 4.76136 4.65664 5.48108 3.75943C6.55116 2.4512 8.26666 1.66666 9.9635 1.66666H10.0377Z" fill="#808191"/>
</svg>
