<svg width="21" height="20" viewBox="0 0 21 20" fill="none" xmlns="http://www.w3.org/2000/svg">
<g opacity="0.5">
<path d="M9.64258 2.51489C10.5068 2.51489 11.3135 3.13726 11.6045 4.13501C11.7113 4.5521 11.7542 4.97043 11.7959 5.37329L11.835 5.7395C11.9844 6.96228 11.9843 12.9694 11.835 14.2014L11.7959 14.5813C11.7586 14.9645 11.7206 15.3612 11.6104 15.7844C11.3194 16.7794 10.5437 17.4249 9.66309 17.425C9.63539 17.425 9.60731 17.425 9.57617 17.4241C9.08985 17.4241 8.56045 17.126 8.26074 16.8655L5.33984 14.429H3.83984C2.68201 14.429 1.83346 13.5907 1.67969 12.2932C1.50249 10.9957 1.53723 8.76933 1.67969 7.59009C1.84739 6.36202 2.73588 5.51099 3.83984 5.51099H5.33984L8.20508 3.1106C8.55076 2.81005 9.16054 2.51317 9.64258 2.51489ZM16.7109 2.69849C17.0566 2.45303 17.5314 2.54252 17.7686 2.8938C19.068 4.80671 19.7842 7.32073 19.7842 9.96997C19.7842 12.621 19.068 15.1342 17.7686 17.0471C17.6271 17.256 17.3936 17.3819 17.1445 17.3821C16.9901 17.3821 16.8404 17.3339 16.7119 17.2434C16.3679 16.9971 16.2825 16.5116 16.5205 16.1594C17.6444 14.5035 18.2637 12.3052 18.2637 9.96997C18.2637 7.63563 17.6444 5.43737 16.5205 3.78149C16.2825 3.43021 16.3678 2.94483 16.7109 2.69849ZM14.0918 5.21411C14.4383 4.96969 14.9115 5.05745 15.1504 5.40942C15.9894 6.64554 16.4521 8.2652 16.4521 9.96997C16.4521 11.6748 15.9895 13.2944 15.1504 14.5305C15.008 14.7394 14.7755 14.8653 14.5264 14.8655C14.3718 14.8655 14.2213 14.8165 14.0928 14.7258C13.7488 14.4795 13.6635 13.9941 13.9023 13.6428C14.5667 12.6637 14.9326 11.359 14.9326 9.96997C14.9326 8.58002 14.5668 7.27623 13.9023 6.29712C13.6635 5.94584 13.7487 5.46045 14.0918 5.21411Z" fill="white"/>
</g>
</svg>
