<svg width="14" height="14" viewBox="0 0 14 14" fill="none" xmlns="http://www.w3.org/2000/svg">
<g clip-path="url(#clip0_1_3813)">
<path d="M9.91665 7.58338L7.58332 12.8334C7.11919 12.8334 6.67407 12.649 6.34588 12.3208C6.01769 11.9926 5.83332 11.5475 5.83332 11.0834V8.75005H2.53165C2.36254 8.75196 2.19503 8.71709 2.04074 8.64784C1.88644 8.57859 1.74905 8.47662 1.63807 8.349C1.52709 8.22138 1.44519 8.07115 1.39804 7.90873C1.35089 7.74632 1.33961 7.57559 1.36499 7.40838L2.16999 2.15838C2.21218 1.88019 2.35348 1.62661 2.56788 1.44438C2.78227 1.26214 3.0553 1.16353 3.33665 1.16671H9.91665M9.91665 7.58338V1.16671M9.91665 7.58338H11.4742C11.8043 7.58922 12.1251 7.47364 12.3756 7.25857C12.6262 7.0435 12.7891 6.74393 12.8333 6.41671V2.33338C12.7891 2.00617 12.6262 1.70659 12.3756 1.49153C12.1251 1.27646 11.8043 1.16088 11.4742 1.16671H9.91665" stroke="#8C8C8C" stroke-width="2" stroke-linecap="round" stroke-linejoin="round"/>
</g>
<defs>
<clipPath id="clip0_1_3813">
<rect width="14" height="14" fill="white"/>
</clipPath>
</defs>
</svg>
