<svg width="14" height="14" viewBox="0 0 14 14" fill="none" xmlns="http://www.w3.org/2000/svg">
<g clip-path="url(#clip0_1_3808)">
<path d="M4.08332 6.41675L6.41666 1.16675C6.88079 1.16675 7.3259 1.35112 7.65409 1.67931C7.98228 2.0075 8.16666 2.45262 8.16666 2.91675V5.25008H11.4683C11.6374 5.24817 11.8049 5.28304 11.9592 5.35229C12.1135 5.42154 12.2509 5.52351 12.3619 5.65113C12.4729 5.77875 12.5548 5.92898 12.6019 6.09139C12.6491 6.25381 12.6604 6.42454 12.635 6.59175L11.83 11.8417C11.7878 12.1199 11.6465 12.3735 11.4321 12.5558C11.2177 12.738 10.9447 12.8366 10.6633 12.8334H4.08332M4.08332 6.41675V12.8334M4.08332 6.41675H2.33332C2.0239 6.41675 1.72716 6.53966 1.50837 6.75846C1.28957 6.97725 1.16666 7.27399 1.16666 7.58341V11.6667C1.16666 11.9762 1.28957 12.2729 1.50837 12.4917C1.72716 12.7105 2.0239 12.8334 2.33332 12.8334H4.08332" stroke="#8C8C8C" stroke-width="2" stroke-linecap="round" stroke-linejoin="round"/>
</g>
<defs>
<clipPath id="clip0_1_3808">
<rect width="14" height="14" fill="white"/>
</clipPath>
</defs>
</svg>
