<svg width="24" height="21" viewBox="0 0 24 21" fill="none" xmlns="http://www.w3.org/2000/svg">
<path d="M16 19.25V17.25C16 16.1891 15.5786 15.1717 14.8284 14.4216C14.0783 13.6714 13.0609 13.25 12 13.25H5C3.93913 13.25 2.92172 13.6714 2.17157 14.4216C1.42143 15.1717 1 16.1891 1 17.25V19.25M18 6.25L23 11.25M23 6.25L18 11.25M12.5 5.25C12.5 7.45914 10.7091 9.25 8.5 9.25C6.29086 9.25 4.5 7.45914 4.5 5.25C4.5 3.04086 6.29086 1.25 8.5 1.25C10.7091 1.25 12.5 3.04086 12.5 5.25Z" stroke="#D9D9D9" stroke-width="2.5" stroke-linecap="round" stroke-linejoin="round"/>
</svg>
