<svg width="19" height="19" viewBox="0 0 19 19" fill="none" xmlns="http://www.w3.org/2000/svg">
<g clip-path="url(#clip0_1_3822)">
<path d="M5.54165 8.70825L8.70831 1.58325C9.3382 1.58325 9.94229 1.83347 10.3877 2.27887C10.8331 2.72427 11.0833 3.32836 11.0833 3.95825V7.12492H15.5641C15.7937 7.12232 16.021 7.16965 16.2304 7.26363C16.4398 7.35761 16.6263 7.496 16.7769 7.6692C16.9275 7.8424 17.0386 8.04628 17.1026 8.2667C17.1666 8.48712 17.1819 8.71883 17.1475 8.94575L16.055 16.0708C15.9977 16.4483 15.8059 16.7924 15.515 17.0398C15.224 17.2871 14.8535 17.4209 14.4716 17.4166H5.54165M5.54165 8.70825V17.4166M5.54165 8.70825H3.16665C2.74672 8.70825 2.34399 8.87507 2.04706 9.172C1.75013 9.46893 1.58331 9.87166 1.58331 10.2916V15.8333C1.58331 16.2532 1.75013 16.6559 2.04706 16.9528C2.34399 17.2498 2.74672 17.4166 3.16665 17.4166H5.54165" stroke="#D9D9D9" stroke-width="2.5" stroke-linecap="round" stroke-linejoin="round"/>
</g>
<defs>
<clipPath id="clip0_1_3822">
<rect width="19" height="19" fill="white"/>
</clipPath>
</defs>
</svg>
