<svg width="19" height="19" viewBox="0 0 19 19" fill="none" xmlns="http://www.w3.org/2000/svg">
<g clip-path="url(#clip0_1_3823)">
<path d="M13.4584 10.2916L10.2917 17.4166C9.6618 17.4166 9.05771 17.1664 8.61231 16.721C8.16691 16.2756 7.91669 15.6715 7.91669 15.0416V11.875H3.43586C3.20635 11.8776 2.97902 11.8302 2.76961 11.7362C2.56021 11.6423 2.37375 11.5039 2.22314 11.3307C2.07253 11.1575 1.96137 10.9536 1.89738 10.7332C1.83339 10.5128 1.81808 10.2811 1.85252 10.0541L2.94502 2.92913C3.00228 2.55158 3.19406 2.20744 3.48502 1.96012C3.77598 1.71281 4.14651 1.57898 4.52836 1.58329H13.4584M13.4584 10.2916V1.58329M13.4584 10.2916H15.5721C16.0202 10.2996 16.4555 10.1427 16.7956 9.85081C17.1356 9.55894 17.3566 9.15237 17.4167 8.70829V3.16663C17.3566 2.72255 17.1356 2.31598 16.7956 2.02411C16.4555 1.73223 16.0202 1.57537 15.5721 1.58329H13.4584" stroke="#D9D9D9" stroke-width="2.5" stroke-linecap="round" stroke-linejoin="round"/>
</g>
<defs>
<clipPath id="clip0_1_3823">
<rect width="19" height="19" fill="white"/>
</clipPath>
</defs>
</svg>
