<svg width="16" height="16" viewBox="0 0 16 16" fill="none" xmlns="http://www.w3.org/2000/svg">
<path d="M7.48695 4.86049V2.18781C7.48695 1.90363 7.71361 1.66681 8.00028 1.66681C8.25695 1.66681 8.4744 1.8658 8.50886 2.11786L8.51361 2.18781V4.86049L11.7002 4.86069C13.2869 4.86069 14.5904 6.16 14.6636 7.78042L14.6669 7.9242V11.2837C14.6669 12.9155 13.4086 14.2549 11.8456 14.3301L11.7069 14.3335L4.29355 14.3335C2.70688 14.3335 1.40961 13.0407 1.33677 11.4143L1.33355 11.27L1.33355 7.91732C1.33355 6.28555 2.58549 4.93962 4.14821 4.86404L4.28688 4.86069L7.48688 4.86069V9.12895L6.42021 8.02747C6.22021 7.82094 5.89355 7.82094 5.69355 8.02747C5.59355 8.13073 5.54688 8.26842 5.54688 8.4061C5.54688 8.51075 5.57675 8.61979 5.63989 8.7121L5.69355 8.77785L7.63355 10.7881C7.72688 10.8913 7.86021 10.9464 8.00021 10.9464C8.11132 10.9464 8.22243 10.9082 8.3104 10.8357L8.36021 10.7881L10.3002 8.77785C10.5002 8.57133 10.5002 8.234 10.3002 8.02747C10.1184 7.83971 9.83189 7.82265 9.63104 7.97626L9.57354 8.02747L8.51355 9.12895V4.86069L7.48695 4.86049Z" fill="white"/>
</svg>
