<svg width="16" height="16" viewBox="0 0 16 16" fill="none" xmlns="http://www.w3.org/2000/svg">
<path d="M6.09297 13.8495V11.811C6.09297 11.2906 6.5179 10.8688 7.04208 10.8688L8.95819 10.8688C9.20991 10.8688 9.45132 10.968 9.62931 11.1447C9.8073 11.3214 9.9073 11.5611 9.9073 11.811V13.8495C9.90571 14.0658 9.99116 14.2738 10.1447 14.4273C10.2982 14.5809 10.5072 14.6672 10.7251 14.6672H12.0323C12.6429 14.6688 13.229 14.4291 13.6612 14.0011C14.0935 13.5731 14.3365 12.9919 14.3365 12.3858V6.57847C14.3364 6.08887 14.1178 5.62445 13.7395 5.31034L9.29247 1.78447C8.51889 1.16627 7.41053 1.18623 6.66005 1.83188L2.31446 5.31034C1.91828 5.61519 1.68149 6.08098 1.66978 6.57847V12.3799C1.66978 13.6431 2.70137 14.6672 3.9739 14.6672H5.25131C5.70394 14.6672 6.07178 14.3047 6.07506 13.8554L6.09297 13.8495Z" fill="white"/>
</svg>
