<svg width="16" height="16" viewBox="0 0 16 16" fill="none" xmlns="http://www.w3.org/2000/svg">
<path d="M8.83839 1.33405C9.00327 1.33422 9.14209 1.47413 9.1421 1.64069V3.78717C9.1421 5.00712 10.1317 6.00699 11.3462 6.01373C11.8413 6.01373 12.2445 6.02057 12.5415 6.02057C12.7461 6.02056 13.0822 6.01374 13.3657 6.01373C13.5374 6.01373 13.6694 6.14785 13.6694 6.31451V11.6739C13.6694 13.3271 12.3366 14.6669 10.6997 14.6671L5.45167 14.6671C3.72904 14.6669 2.33645 13.2606 2.33644 11.5274V4.34088C2.33644 2.68766 3.66299 1.33423 5.313 1.33405L8.83839 1.33405ZM7.76222 5.82721C7.49165 5.82722 7.26719 6.04729 7.2671 6.32721V9.54108L6.2173 8.47369C6.02596 8.28084 5.71624 8.28081 5.52491 8.47369C5.33349 8.66703 5.33349 8.98073 5.52491 9.18073L7.41261 11.0938C7.45877 11.1404 7.51148 11.1736 7.57081 11.2003C7.63021 11.2269 7.69622 11.2403 7.76222 11.2403C7.82821 11.2403 7.8874 11.2269 7.94679 11.2003C8.00614 11.1736 8.05882 11.1404 8.10499 11.0938L9.99952 9.18073C10.1909 8.98074 10.1916 8.66703 9.99366 8.47369C9.80232 8.28044 9.49174 8.28059 9.3003 8.47369L8.2505 9.54108V6.32721C8.25041 6.04729 8.03279 5.82721 7.76222 5.82721ZM10.1001 1.93854C10.1001 1.6512 10.4454 1.50855 10.6421 1.71588C11.3563 2.46527 12.6034 3.77502 13.3003 4.5069C13.4927 4.70892 13.3512 5.04432 13.0728 5.04498C12.5309 5.04698 11.8912 5.04477 11.4312 5.0401C10.7012 5.04004 10.1001 4.43267 10.1001 3.69537V1.93854Z" fill="white"/>
</svg>
