<svg width="16" height="16" viewBox="0 0 16 16" fill="none" xmlns="http://www.w3.org/2000/svg">
<path d="M8.70818 4.0004C8.99446 4.00986 9.59357 4.25907 9.60368 4.27188C10.5796 4.68134 12.4624 5.91716 13.3322 6.79825L13.5851 7.0629C13.6512 7.13448 13.7255 7.21946 13.7717 7.28555C13.9258 7.4897 14.0031 7.7429 14.0031 7.99551C14.003 8.27741 13.9167 8.53994 13.7531 8.7543L13.4933 9.0336L13.4347 9.09415C12.6454 9.94969 10.5856 11.3487 9.50798 11.7768L9.34489 11.8393C9.1491 11.9094 8.87443 11.9927 8.70818 12.0004C8.4967 12.0003 8.29432 11.9508 8.10173 11.8539C7.86126 11.7181 7.66978 11.5038 7.56364 11.2514C7.4967 11.0784 7.39195 10.5622 7.38982 10.5424C7.29247 10.013 7.23581 9.17695 7.22771 8.24063L7.22673 8.00528C7.22673 7.02425 7.28375 6.12937 7.37029 5.5463L7.44646 5.18399C7.48862 4.99205 7.54394 4.7732 7.60173 4.66153C7.81336 4.25323 8.22719 4.0004 8.67009 4.0004H8.70818ZM5.47185 7.20645C5.90583 7.20669 6.25798 7.56213 6.25798 8.0004C6.25782 8.43926 5.90573 8.79411 5.47185 8.79434L3.00505 9.01212C2.4518 9.012 2.00325 8.55903 2.0031 8.0004C2.0031 7.44163 2.4517 6.98782 3.00505 6.9877L5.47185 7.20645Z" fill="white"/>
</svg>
